# xmcd CD database file
#
# Track frame offsets:
#	150
#	17623
#	37548
#	56629
#	76469
#	94535
#	112352
#	130556
#	160833
#	184343
#	203238
#	228568
#	256414
#	277969
#	308644
#
# Disc length: 4634 seconds
#
# Revision: 0
# Processed by: cddbd v1.5.1PL0 Copyright (c) Steve Scherf et al.
# Submitted via: CDex 1.51
#
DISCID=bf12180f
DTITLE=George - Unity
DYEAR=2004
DGENRE=Pop
TTITLE0=Falling Inside
TTITLE1=Still I Real
TTITLE2=One
TTITLE3=Beauty of All Things
TTITLE4=Captive
TTITLE5=Today
TTITLE6=Fall
TTITLE7=Fortunate Smile
TTITLE8=Change
TTITLE9=Jaded
TTITLE10=Surrender
TTITLE11=Growing with Love
TTITLE12=Real
TTITLE13=Still Real (acousthic version)
TTITLE14=extra data
EXTD=YEAR: 2004
EXTT0=
EXTT1=
EXTT2=
EXTT3=
EXTT4=
EXTT5=
EXTT6=
EXTT7=
EXTT8=
EXTT9=
EXTT10=
EXTT11=
EXTT12=
EXTT13=
EXTT14=
PLAYORDER=
